<svg width="17" height="16" viewBox="0 0 17 16" fill="none" xmlns="http://www.w3.org/2000/svg">
<g clip-path="url(#clip0_35_178)">
<path d="M10.6733 1.33337H6.67328C6.30509 1.33337 6.00661 1.63185 6.00661 2.00004V3.33337C6.00661 3.70156 6.30509 4.00004 6.67328 4.00004H10.6733C11.0415 4.00004 11.3399 3.70156 11.3399 3.33337V2.00004C11.3399 1.63185 11.0415 1.33337 10.6733 1.33337Z" stroke="#F7F7F7" stroke-width="2" stroke-linecap="round" stroke-linejoin="round"/>
<path d="M6.00661 2.66663H4.67328C4.31966 2.66663 3.98052 2.8071 3.73047 3.05715C3.48042 3.3072 3.33994 3.64634 3.33994 3.99996V13.3333C3.33994 13.6869 3.48042 14.0261 3.73047 14.2761C3.98052 14.5262 4.31966 14.6666 4.67328 14.6666H12.6733C13.0269 14.6666 13.366 14.5262 13.6161 14.2761C13.8661 14.0261 14.0066 13.6869 14.0066 13.3333V13" stroke="#F7F7F7" stroke-width="2" stroke-linecap="round" stroke-linejoin="round"/>
<path d="M11.3399 2.66663H12.6733C12.9071 2.66687 13.1367 2.72859 13.3392 2.8456C13.5416 2.96261 13.7097 3.1308 13.8266 3.33329" stroke="#F7F7F7" stroke-width="2" stroke-linecap="round" stroke-linejoin="round"/>
<path d="M12.9533 6.40665C13.0833 6.27664 13.2376 6.17352 13.4075 6.10316C13.5774 6.0328 13.7594 5.99658 13.9433 5.99658C14.1271 5.99658 14.3092 6.0328 14.4791 6.10316C14.6489 6.17352 14.8033 6.27664 14.9333 6.40665C15.0633 6.53666 15.1664 6.691 15.2368 6.86087C15.3071 7.03073 15.3434 7.21279 15.3434 7.39665C15.3434 7.58051 15.3071 7.76257 15.2368 7.93244C15.1664 8.1023 15.0633 8.25664 14.9333 8.38665L11.9733 11.3333L9.33995 12L9.99995 9.36665L12.9533 6.40665Z" stroke="#F7F7F7" stroke-width="2" stroke-linecap="round" stroke-linejoin="round"/>
<path d="M6.00661 12H6.67328" stroke="#F7F7F7" stroke-width="2" stroke-linecap="round" stroke-linejoin="round"/>
</g>
<defs>
<clipPath id="clip0_35_178">
<rect width="16" height="16" fill="white" transform="translate(0.673279)"/>
</clipPath>
</defs>
</svg>
