<svg width="17" height="16" viewBox="0 0 17 16" fill="none" xmlns="http://www.w3.org/2000/svg">
<path d="M8.81995 1.33337H8.52661C8.17299 1.33337 7.83385 1.47385 7.5838 1.7239C7.33375 1.97395 7.19328 2.31309 7.19328 2.66671V2.78671C7.19304 3.02052 7.13132 3.25017 7.0143 3.4526C6.89729 3.65503 6.7291 3.82313 6.52661 3.94004L6.23995 4.10671C6.03725 4.22373 5.80733 4.28534 5.57328 4.28534C5.33923 4.28534 5.1093 4.22373 4.90661 4.10671L4.80661 4.05337C4.50065 3.87688 4.13717 3.829 3.79595 3.92025C3.45472 4.01149 3.16365 4.2344 2.98661 4.54004L2.83994 4.79337C2.66345 5.09933 2.61557 5.46282 2.70682 5.80404C2.79806 6.14526 3.02097 6.43634 3.32661 6.61337L3.42661 6.68004C3.62813 6.79638 3.79569 6.96343 3.91265 7.16459C4.0296 7.36576 4.09187 7.59402 4.09328 7.82671V8.16671C4.09421 8.40165 4.03305 8.63268 3.91597 8.83638C3.7989 9.04008 3.63008 9.20923 3.42661 9.32671L3.32661 9.38671C3.02097 9.56374 2.79806 9.85482 2.70682 10.196C2.61557 10.5373 2.66345 10.9007 2.83994 11.2067L2.98661 11.46C3.16365 11.7657 3.45472 11.9886 3.79595 12.0798C4.13717 12.1711 4.50065 12.1232 4.80661 11.9467L4.90661 11.8934C5.1093 11.7763 5.33923 11.7147 5.57328 11.7147C5.80733 11.7147 6.03725 11.7763 6.23995 11.8934L6.52661 12.06C6.7291 12.1769 6.89729 12.3451 7.0143 12.5475C7.13132 12.7499 7.19304 12.9796 7.19328 13.2134V13.3334C7.19328 13.687 7.33375 14.0261 7.5838 14.2762C7.83385 14.5262 8.17299 14.6667 8.52661 14.6667H8.81995C9.17357 14.6667 9.51271 14.5262 9.76275 14.2762C10.0128 14.0261 10.1533 13.687 10.1533 13.3334V13.2134C10.1535 12.9796 10.2152 12.7499 10.3323 12.5475C10.4493 12.3451 10.6175 12.1769 10.8199 12.06L11.1066 11.8934C11.3093 11.7763 11.5392 11.7147 11.7733 11.7147C12.0073 11.7147 12.2373 11.7763 12.4399 11.8934L12.5399 11.9467C12.8459 12.1232 13.2094 12.1711 13.5506 12.0798C13.8918 11.9886 14.1829 11.7657 14.3599 11.46L14.5066 11.2C14.6831 10.8941 14.731 10.5306 14.6397 10.1894C14.5485 9.84815 14.3256 9.55707 14.0199 9.38004L13.9199 9.32671C13.7165 9.20923 13.5477 9.04008 13.4306 8.83638C13.3135 8.63268 13.2523 8.40165 13.2533 8.16671V7.83337C13.2523 7.59843 13.3135 7.36741 13.4306 7.1637C13.5477 6.96 13.7165 6.79085 13.9199 6.67337L14.0199 6.61337C14.3256 6.43634 14.5485 6.14526 14.6397 5.80404C14.731 5.46282 14.6831 5.09933 14.5066 4.79337L14.3599 4.54004C14.1829 4.2344 13.8918 4.01149 13.5506 3.92025C13.2094 3.829 12.8459 3.87688 12.5399 4.05337L12.4399 4.10671C12.2373 4.22373 12.0073 4.28534 11.7733 4.28534C11.5392 4.28534 11.3093 4.22373 11.1066 4.10671L10.8199 3.94004C10.6175 3.82313 10.4493 3.65503 10.3323 3.4526C10.2152 3.25017 10.1535 3.02052 10.1533 2.78671V2.66671C10.1533 2.31309 10.0128 1.97395 9.76275 1.7239C9.51271 1.47385 9.17357 1.33337 8.81995 1.33337Z" stroke="#F7F7F7" stroke-width="2" stroke-linecap="round" stroke-linejoin="round"/>
<path d="M8.67328 10C9.77785 10 10.6733 9.10457 10.6733 8C10.6733 6.89543 9.77785 6 8.67328 6C7.56871 6 6.67328 6.89543 6.67328 8C6.67328 9.10457 7.56871 10 8.67328 10Z" stroke="#F7F7F7" stroke-width="2" stroke-linecap="round" stroke-linejoin="round"/>
</svg>
