<svg width="16" height="16" viewBox="0 0 16 16" fill="none" xmlns="http://www.w3.org/2000/svg">
<path d="M10 1.33337H6.00004C5.63185 1.33337 5.33337 1.63185 5.33337 2.00004V3.33337C5.33337 3.70156 5.63185 4.00004 6.00004 4.00004H10C10.3682 4.00004 10.6667 3.70156 10.6667 3.33337V2.00004C10.6667 1.63185 10.3682 1.33337 10 1.33337Z" stroke="#0F172A" stroke-width="2" stroke-linecap="round" stroke-linejoin="round"/>
<path d="M5.33329 2.66663H3.99996C3.64634 2.66663 3.3072 2.8071 3.05715 3.05715C2.8071 3.3072 2.66663 3.64634 2.66663 3.99996V13.3333C2.66663 13.6869 2.8071 14.0261 3.05715 14.2761C3.3072 14.5262 3.64634 14.6666 3.99996 14.6666H12C12.3536 14.6666 12.6927 14.5262 12.9428 14.2761C13.1928 14.0261 13.3333 13.6869 13.3333 13.3333V13" stroke="#0F172A" stroke-width="2" stroke-linecap="round" stroke-linejoin="round"/>
<path d="M10.6666 2.66663H12C12.2338 2.66687 12.4634 2.72859 12.6659 2.8456C12.8683 2.96261 13.0364 3.1308 13.1533 3.33329" stroke="#0F172A" stroke-width="2" stroke-linecap="round" stroke-linejoin="round"/>
<path d="M12.28 6.40665C12.41 6.27664 12.5643 6.17352 12.7342 6.10316C12.904 6.0328 13.0861 5.99658 13.27 5.99658C13.4538 5.99658 13.6359 6.0328 13.8057 6.10316C13.9756 6.17352 14.1299 6.27664 14.26 6.40665C14.39 6.53666 14.4931 6.691 14.5635 6.86087C14.6338 7.03073 14.67 7.21279 14.67 7.39665C14.67 7.58051 14.6338 7.76257 14.5635 7.93244C14.4931 8.1023 14.39 8.25664 14.26 8.38665L11.3 11.3333L8.66663 12L9.32663 9.36665L12.28 6.40665Z" stroke="#0F172A" stroke-width="2" stroke-linecap="round" stroke-linejoin="round"/>
<path d="M5.33337 12H6.00004" stroke="#0F172A" stroke-width="2" stroke-linecap="round" stroke-linejoin="round"/>
</svg>
