<svg width="16" height="18" viewBox="0 0 16 18" fill="none" xmlns="http://www.w3.org/2000/svg">
<path d="M10.6667 15.75V14.25C10.6667 13.4544 10.3858 12.6913 9.88566 12.1287C9.38556 11.5661 8.70728 11.25 8.00004 11.25H4.00004C3.2928 11.25 2.61452 11.5661 2.11442 12.1287C1.61433 12.6913 1.33337 13.4544 1.33337 14.25V15.75" stroke="#0F172A" stroke-width="2" stroke-linecap="round" stroke-linejoin="round"/>
<path d="M6.00004 8.25C7.4728 8.25 8.66671 6.90685 8.66671 5.25C8.66671 3.59315 7.4728 2.25 6.00004 2.25C4.52728 2.25 3.33337 3.59315 3.33337 5.25C3.33337 6.90685 4.52728 8.25 6.00004 8.25Z" stroke="#0F172A" stroke-width="2" stroke-linecap="round" stroke-linejoin="round"/>
<path d="M14.6666 15.75V14.25C14.6662 13.5853 14.4695 12.9396 14.1075 12.4143C13.7455 11.8889 13.2387 11.5137 12.6666 11.3475" stroke="#0F172A" stroke-width="2" stroke-linecap="round" stroke-linejoin="round"/>
<path d="M10.6666 2.34753C11.2402 2.51276 11.7487 2.88806 12.1117 3.41427C12.4748 3.94047 12.6719 4.58766 12.6719 5.25378C12.6719 5.91991 12.4748 6.56709 12.1117 7.0933C11.7487 7.61951 11.2402 7.99481 10.6666 8.16003" stroke="#0F172A" stroke-width="2" stroke-linecap="round" stroke-linejoin="round"/>
</svg>
