<svg width="14" height="14" viewBox="0 0 14 14" fill="none" xmlns="http://www.w3.org/2000/svg">
<path d="M5.95801 0.375244C9.24859 0.375247 11.9168 3.04272 11.917 6.33325C11.917 7.75318 11.4181 9.05556 10.5889 10.0793L13.0664 12.5579C13.3105 12.8019 13.3105 13.1976 13.0664 13.4417C12.8223 13.6857 12.4267 13.6857 12.1826 13.4417L9.70508 10.9651C8.68127 11.7944 7.37799 12.2922 5.95801 12.2922C2.66746 12.2921 0 9.62384 0 6.33325C0.000186952 3.04282 2.66758 0.37542 5.95801 0.375244ZM5.95801 1.62524C3.35793 1.62542 1.25019 3.73318 1.25 6.33325C1.25 8.93348 3.35782 11.0421 5.95801 11.0422C8.55835 11.0422 10.667 8.93359 10.667 6.33325C10.6668 3.73307 8.55823 1.62525 5.95801 1.62524Z" fill="#7F7F7F"/>
</svg>
